<svg width="56" height="56" viewBox="0 0 56 56" fill="none" xmlns="http://www.w3.org/2000/svg">
<circle cx="28" cy="28" r="28" fill="#60C3AD"/>
<path d="M40.8941 25.1147L40.8941 25.1147C40.6812 24.0798 40.0775 23.1894 39.1951 22.609C38.5467 22.1819 37.7955 21.9561 37.0221 21.9561C35.93 21.9561 34.9073 22.4055 34.1695 23.1775L25.4693 17.4467L26.3321 16.1363L26.3871 16.0527L26.3036 15.9977L24.9936 15.1354L26.2737 13.192L26.3287 13.1086L26.2452 13.0535L25.2165 12.3755L25.133 12.3204L25.078 12.404L23.7979 14.3473L22.488 13.4845L22.4044 13.4295L22.3494 13.513L20.9316 15.6663C20.6305 15.6168 20.324 15.5851 20.0134 15.5851C18.2391 15.5851 16.5862 16.3756 15.4775 17.7523L15.4775 17.7523L15.0529 18.2804L14.984 18.3661L15.0759 18.4266L17.7828 20.2089C17.4943 20.7074 17.3971 21.2856 17.5135 21.8536L17.5135 21.8537C17.64 22.4679 17.9984 22.996 18.5215 23.3409C18.9061 23.5949 19.3528 23.7287 19.8115 23.7287C20.5577 23.7287 21.2496 23.377 21.6918 22.785L24.691 24.7598L24.7829 24.8203L24.8344 24.7231L25.1515 24.1246L25.0631 24.0778L25.1515 24.1246C26.0134 22.4974 26.0321 20.6496 25.3445 19.0791L33.3802 24.3718C33.0686 25.1046 32.9825 25.9127 33.146 26.7086L33.146 26.7087C33.3103 27.5055 33.709 28.2137 34.2845 28.7639L28.0377 38.2473H23.2173H23.1173V38.3473V40.4035H20.0552H19.9552V40.5035V43.8916V43.9916H20.0552H37.5111H37.6111V43.8916V40.5035V40.4035H37.5111H34.4491V38.3473V38.2473H34.3491H29.751L35.4786 29.5523C35.963 29.7577 36.4828 29.8681 37.0157 29.8681C38.3508 29.8681 39.587 29.2024 40.321 28.0884C40.9036 27.2052 41.1065 26.1492 40.8941 25.1147ZM19.3092 22.1448L19.3091 22.1446C19.1044 22.0101 18.9648 21.8044 18.916 21.5646L18.916 21.5645C18.8766 21.3716 18.9011 21.1762 18.9828 20.9997L20.4887 21.9915C20.1939 22.3081 19.6762 22.387 19.3092 22.1448ZM39.126 27.2989L39.126 27.299C38.6576 28.0099 37.8692 28.4347 37.016 28.4347C36.5229 28.4347 36.0437 28.291 35.6303 28.0181L35.6302 28.0181C35.0679 27.6472 34.6821 27.0796 34.547 26.4196L34.5469 26.4195C34.4113 25.7596 34.5402 25.0862 34.9107 24.5232C35.3794 23.8122 36.1679 23.3875 37.0211 23.3875C37.5132 23.3875 37.9925 23.5312 38.4064 23.8041L38.4064 23.8041C38.9695 24.175 39.3545 24.7426 39.4901 25.4027L39.4901 25.4029C39.6269 26.063 39.4972 26.7366 39.126 27.2989ZM36.1801 41.8349V42.5588H21.3871V41.8349H36.1801ZM33.0184 40.4031H24.5494V39.6792H33.0184V40.4031ZM22.4121 16.02L22.8121 15.4131L24.4029 16.461L24.0029 17.0687L22.4121 16.02ZM22.4192 17.7402C24.092 18.8416 24.7805 20.8782 24.1948 22.719L17.1466 18.0759C17.9355 17.3955 18.9444 17.0168 20.012 17.0168C20.8677 17.0168 21.6997 17.2666 22.4192 17.7402Z" fill="white" stroke="white" strokeWidth="0.2"/>
</svg>
