<svg width="56" height="56" viewBox="0 0 56 56" fill="none" xmlns="http://www.w3.org/2000/svg">
<circle cx="28" cy="28" r="28" fill="#60C3AD"/>
<path d="M24.926 29.033C24.926 31.2113 26.6977 32.983 28.8758 32.983C31.0539 32.983 32.8255 31.211 32.8255 29.033C32.8255 26.8551 31.0538 25.0832 28.8758 25.0832C26.6976 25.0832 24.926 26.8552 24.926 29.033ZM31.7827 29.033C31.7827 30.6359 30.4785 31.9401 28.8758 31.9401C27.2732 31.9401 25.9689 30.6359 25.9689 29.033C25.9689 27.4303 27.2731 26.1261 28.8758 26.1261C30.4785 26.1261 31.7827 27.4303 31.7827 29.033Z" fill="white" stroke="white" strokeWidth="0.4"/>
<path d="M16.9339 28.411V28.4109C16.9337 27.1514 17.959 26.1261 19.2188 26.1261C20.4786 26.1261 21.5037 27.1512 21.5037 28.411C21.5037 29.6708 20.4786 30.6959 19.2188 30.6959C17.959 30.6959 16.9339 29.6708 16.9339 28.411ZM15.8908 28.4112C15.8908 30.2464 17.3836 31.7392 19.2188 31.7392C21.0541 31.7392 22.5468 30.2464 22.5468 28.4112C22.5468 26.576 21.0541 25.0832 19.2188 25.0832C17.3836 25.0832 15.8908 26.576 15.8908 28.4112Z" fill="white" stroke="white" strokeWidth="0.4"/>
<path d="M37.6417 26.1263H37.6417C38.9015 26.1261 39.9266 27.1514 39.9266 28.4112C39.9266 29.671 38.9015 30.6961 37.6417 30.6961C36.3819 30.6961 35.3568 29.671 35.3568 28.4112C35.3568 27.1514 36.3819 26.1263 37.6417 26.1263ZM34.3137 28.4112C34.3137 30.2464 35.8064 31.7392 37.6417 31.7392C39.4769 31.7392 40.9697 30.2464 40.9697 28.4112C40.9697 26.576 39.4769 25.0832 37.6417 25.0832C35.8064 25.0832 34.3137 26.576 34.3137 28.4112Z" fill="white" stroke="white" strokeWidth="0.4"/>
<path d="M15.8504 32.1887H15.8504C14.1681 32.1889 12.8 33.557 12.8 35.2391V38.2505C12.8 38.8928 13.3221 39.4149 13.9644 39.4149H21.1464V41.1955C21.1464 41.8379 21.6685 42.36 22.3109 42.36H35.4429C36.0852 42.36 36.6073 41.8379 36.6073 41.1955V39.4149H42.8956C43.5379 39.4149 44.06 38.8928 44.06 38.2505L44.0599 35.2391C44.0599 33.5567 42.6916 32.1887 41.0095 32.1887H34.2647C33.117 32.1887 32.1181 32.8262 31.5979 33.7632L25.2587 33.7635C24.7388 32.8271 23.7424 32.1889 22.5952 32.1889L15.8504 32.1887ZM35.5451 39.4148H35.5644V41.1955C35.5644 41.2624 35.5097 41.317 35.4428 41.317H33.8171V37.7798C33.8171 37.4918 33.5836 37.2583 33.2956 37.2583C33.0076 37.2583 32.774 37.4914 32.774 37.7798V41.317H24.9792V37.7798C24.9792 37.4918 24.7457 37.2583 24.4576 37.2583C24.1697 37.2583 23.9361 37.4914 23.9361 37.7798V41.317H22.3104C22.2436 41.317 22.1889 41.2623 22.1889 41.1955V37.3742C22.1889 35.9583 23.3411 34.8063 24.757 34.8063H32.996C34.4117 34.8063 35.5639 35.9583 35.5639 37.3742V37.3742L35.5643 38.372H35.5451V38.572V39.2148V39.4148ZM21.1465 37.3742V38.372H15.9603V36.5878C15.9603 36.344 15.7625 36.1468 15.5192 36.1468C15.2755 36.1468 15.0782 36.3445 15.0782 36.5878V38.372H13.9644C13.8976 38.372 13.8429 38.3173 13.8429 38.2504V35.239C13.8429 34.1323 14.7435 33.2315 15.8502 33.2315H22.595C23.1552 33.2315 23.6607 33.4643 24.0248 33.8381C22.3838 34.1778 21.1465 35.6338 21.1465 37.3742ZM43.017 38.2507C43.017 38.3176 42.9623 38.3722 42.8954 38.3722H41.7814V36.5878C41.7814 36.344 41.5837 36.1468 41.3404 36.1468C41.0966 36.1468 40.8993 36.3445 40.8993 36.5878V38.372H36.6073V37.3742C36.6073 35.3831 34.9877 33.7634 32.9966 33.7634H32.9137C33.2702 33.4338 33.7434 33.2317 34.2646 33.2317H41.0094C42.1161 33.2317 43.017 34.1326 43.017 35.2391L43.017 38.2507Z" fill="white" stroke="white" strokeWidth="0.4"/>
<path d="M26.8216 22.3338C26.8572 22.3338 26.8895 22.353 26.9064 22.3842L26.9065 22.3843L27.9763 24.3648L27.9764 24.3651C28.0675 24.5332 28.2434 24.6384 28.435 24.6384C28.6261 24.6384 28.8026 24.5338 28.8938 24.3647C28.8938 24.3647 28.8938 24.3647 28.8938 24.3647L29.9635 22.3843C29.9804 22.3531 30.0127 22.3338 30.0483 22.3338H37.3259C38.2949 22.3338 39.0831 21.5458 39.0831 20.5765L39.0834 13.5579C39.0834 12.7153 38.488 12.0098 37.696 11.8395L37.7256 11.8H37.3263H19.5441C18.5751 11.8 17.7868 12.588 17.7868 13.5573V20.5765C17.7868 21.5458 18.5751 22.3338 19.5441 22.3338H26.8216ZM38.0408 20.5766C38.0408 20.9702 37.7202 21.291 37.3263 21.291H30.0488C29.6299 21.291 29.2457 21.5198 29.0465 21.8886C29.0465 21.8886 29.0465 21.8886 29.0465 21.8886L28.4355 23.0197L27.8244 21.8886C27.6253 21.52 27.2408 21.291 26.8221 21.291H19.544C19.1504 21.291 18.8296 20.9702 18.8296 20.5766V13.5579C18.8296 13.1643 19.1502 12.8435 19.544 12.8435H37.3262C37.7198 12.8435 38.0407 13.1643 38.0407 13.5579L38.0408 20.5766Z" fill="white" stroke="white" strokeWidth="0.4"/>
<path d="M37.0933 14.2902C37.0937 14.0466 36.896 13.849 36.6528 13.8488C36.6527 13.8488 36.6526 13.8488 36.6525 13.8488H25.4759C25.2321 13.8488 25.0349 14.0466 25.0349 14.2899C25.0349 14.5336 25.2326 14.7309 25.4759 14.7309H36.6522C36.8959 14.7309 37.0931 14.5334 37.0933 14.2902ZM37.0933 14.2902L36.8933 14.2899H37.0933C37.0933 14.29 37.0933 14.2901 37.0933 14.2902Z" fill="white" stroke="white" strokeWidth="0.4"/>
<path d="M20.2049 14.7309H23.3089C23.5527 14.7309 23.75 14.5332 23.75 14.2899C23.75 14.0461 23.5522 13.8488 23.3089 13.8488H20.2049C19.9611 13.8488 19.7639 14.0466 19.7639 14.2899C19.7639 14.5332 19.9611 14.7309 20.2049 14.7309Z" fill="white" stroke="white" strokeWidth="0.4"/>
<path d="M36.6555 16.343H33.6077C33.364 16.343 33.1667 16.5407 33.1667 16.784C33.1667 17.0278 33.3644 17.2251 33.6077 17.2251H36.6555C36.8993 17.2251 37.0965 17.0273 37.0965 16.784C37.0965 16.5406 36.8989 16.343 36.6555 16.343Z" fill="white" stroke="white" strokeWidth="0.4"/>
<path d="M20.2049 17.2251H31.1947C31.4385 17.2251 31.6357 17.0273 31.6357 16.784C31.6357 16.5402 31.438 16.343 31.1947 16.343H20.2049C19.9611 16.343 19.7639 16.5407 19.7639 16.784C19.7639 17.0277 19.9613 17.2251 20.2049 17.2251Z" fill="white" stroke="white" strokeWidth="0.4"/>
<path d="M36.656 18.843H20.2049C19.9611 18.843 19.7639 19.0407 19.7639 19.284C19.7639 19.5278 19.9616 19.7251 20.2049 19.7251H36.656C36.8998 19.7251 37.097 19.5273 37.097 19.284C37.097 19.0406 36.8994 18.843 36.656 18.843Z" fill="white" stroke="white" strokeWidth="0.4"/>
</svg>
