<svg width="56" height="56" viewBox="0 0 56 56" fill="none" xmlns="http://www.w3.org/2000/svg">
<circle cx="28" cy="28" r="28" fill="#60C3AD"/>
<path d="M28.6079 11.0176C27.7657 11.0173 27.0306 11.4866 26.5829 12.1324C26.1349 12.7784 25.9163 13.5968 25.9163 14.4757V14.8915H23.1868C22.7694 14.8915 22.4308 15.23 22.4308 15.6474V24.9449C22.4308 25.3625 22.7694 25.7008 23.1868 25.7008H34.0293C34.4467 25.7008 34.7852 25.3622 34.7852 24.9449V15.6474C34.7852 15.23 34.4467 14.8915 34.0293 14.8915H31.2993V14.4757C31.2993 13.5966 31.0807 12.7782 30.6327 12.1324C30.1847 11.4867 29.45 11.0178 28.6079 11.0176ZM28.6079 12.5294C28.9272 12.5294 29.1608 12.6629 29.3905 12.9938C29.6202 13.3249 29.7876 13.8573 29.7876 14.4756V14.8914H27.4288V14.4756C27.4288 13.8573 27.5965 13.3249 27.8259 12.9938C28.0555 12.6626 28.2889 12.5292 28.6079 12.5294ZM23.9435 16.4033H25.9168V17.1785C25.9026 18.2008 27.4432 18.2008 27.4287 17.1785V16.4033H29.7875V17.1785C29.7732 18.2008 31.3138 18.2008 31.2993 17.1785V16.4033H33.2734V24.1888H23.9429L23.9435 16.4033ZM40.3555 26.525C39.3042 26.525 38.253 26.849 37.409 27.4974L33.9591 30.1465C33.1844 29.5772 32.1788 29.2503 31.0819 29.2503H22.7011C22.6697 29.246 22.6381 29.2431 22.6067 29.2431C22.4364 29.2431 22.2708 29.3006 22.1371 29.4064L16.1948 33.9697C16.0777 33.9096 15.9469 33.8811 15.8153 33.8869C15.6608 33.894 15.5121 33.9478 15.3892 34.0419L12.5484 36.2235C11.8028 36.7965 11.3672 37.6173 11.3672 38.4603C11.3672 39.3033 11.8028 40.1233 12.5484 40.696L16.0995 43.4231C17.5912 44.5682 19.791 44.5682 21.2823 43.4231L24.1239 41.2415C24.3274 41.0849 24.4374 40.8357 24.4163 40.5799H32.5426C32.853 40.5301 33.0602 40.4067 33.2603 40.2264L43.3023 32.5145C44.1463 31.8664 44.6313 30.9472 44.6313 30.0056C44.6313 29.0641 44.1464 28.1452 43.3023 27.4968C42.4583 26.8487 41.4067 26.525 40.3555 26.525ZM40.3555 28.0819C41.1017 28.0819 41.8481 28.2868 42.3813 28.6963C42.9144 29.1058 43.1188 29.5674 43.1188 30.0059C43.1188 30.4447 42.9144 30.9061 42.3813 31.3155L32.3386 39.0261C32.322 39.039 32.3057 39.053 32.2899 39.0675H23.1625C23.0757 39.0675 22.9898 39.0804 22.9078 39.1089L17.4461 34.9146L22.5854 30.9686C22.7601 30.8345 22.9742 30.7618 23.1944 30.7618H31.0824C31.9006 30.7618 32.6222 31.0202 33.1097 31.3946C33.5973 31.769 33.8423 32.2223 33.8423 32.7059C33.8423 33.697 32.7823 34.6779 31.1536 34.6779H25.3454C24.3231 34.6634 24.3231 36.2043 25.3454 36.19H31.1536C33.4204 36.19 35.3544 34.7061 35.3544 32.7059C35.3544 32.1909 35.2133 31.7068 34.9726 31.2752L38.3302 28.6962C38.8633 28.2868 39.6093 28.0819 40.3555 28.0819Z" fill="white"/>
</svg>
