<svg width="56" height="56" viewBox="0 0 56 56" fill="none" xmlns="http://www.w3.org/2000/svg">
<circle cx="28" cy="28" r="28" fill="#60C3AD"/>
<path d="M22.5818 18.8616L22.5818 18.8616L22.5809 18.8625C21.0507 20.3988 20.1912 22.4786 20.1912 24.6471C20.1912 26.8153 21.0506 28.8953 22.5807 30.4313C22.7135 30.5668 22.8947 30.6444 23.0844 30.6473C23.2867 30.6542 23.4827 30.5758 23.6243 30.4312L23.6243 30.4312L23.6259 30.4295C23.8818 30.1433 23.8818 29.7103 23.6258 29.4242L23.6259 29.4242L23.6238 29.4221C22.3495 28.1596 21.6327 26.4406 21.6327 24.6471C21.6327 22.8533 22.3494 21.1344 23.6238 19.8719L23.6238 19.872L23.6258 19.8698C23.8818 19.5837 23.8818 19.1507 23.6259 18.8645L23.6109 18.8478H23.6082C23.3162 18.5837 22.8681 18.5883 22.5818 18.8616Z" fill="white" stroke="white" strokeWidth="0.1"/>
<path d="M34.1797 18.8616C33.8933 18.5883 33.4453 18.5837 33.1533 18.8478H33.1505L33.1356 18.8645C32.8797 19.1507 32.8797 19.5837 33.1356 19.8698L33.1356 19.8698L33.1377 19.8719C34.412 21.1344 35.1287 22.8534 35.1287 24.6471C35.1287 26.4407 34.412 28.1596 33.1377 29.4221L33.1376 29.422L33.1356 29.4242C32.8797 29.7103 32.8797 30.1433 33.1356 30.4295L33.1356 30.4296L33.1372 30.4312C33.2788 30.5758 33.4748 30.6542 33.6771 30.6473C33.8668 30.6444 34.0479 30.5668 34.1808 30.4313C35.7108 28.8953 36.5703 26.8153 36.5703 24.6471C36.5703 22.4786 35.7108 20.3988 34.1806 18.8625L34.1806 18.8625L34.1797 18.8616Z" fill="white" stroke="white" strokeWidth="0.1"/>
<path d="M19.7839 15.057L19.7717 15.0081L19.902 15.1446C20.18 15.4361 20.18 15.8944 19.902 16.1859L19.9012 16.1867L19.9012 16.1867C17.6608 18.433 16.4026 21.4764 16.4026 24.6494C16.4026 27.8221 17.6605 30.865 19.9004 33.1114C20.0417 33.2414 20.122 33.4247 20.122 33.6168C20.122 33.8085 20.0419 33.9914 19.9012 34.1214C19.7712 34.2624 19.5882 34.3425 19.3965 34.3425C19.2042 34.3425 19.021 34.2622 18.8909 34.1207C18.8906 34.1204 18.8904 34.1201 18.8901 34.1198L18.9269 34.0861C17.2632 32.4288 16.0662 30.3622 15.457 28.0945L19.7839 15.057ZM19.7839 15.057C19.5056 14.8901 19.1436 14.9184 18.8936 15.142L18.8936 15.1419L18.8917 15.1438C17.2217 16.8072 16.0202 18.8816 15.4088 21.1579L19.7839 15.057Z" fill="white" stroke="white" strokeWidth="0.1"/>
<path d="M36.8591 34.1222C36.7179 33.9922 36.6375 33.8089 36.6375 33.6168C36.6375 33.4248 36.7179 33.2415 36.8591 33.1115C39.0991 30.8647 40.3569 27.822 40.3569 24.6495C40.3569 21.4765 39.0987 18.4333 36.8583 16.1868L36.8575 16.186L36.8576 16.186C36.5796 15.8945 36.5796 15.4362 36.8576 15.1447L36.8603 15.1418L36.8604 15.142C37.1467 14.886 37.5797 14.886 37.8659 15.142L37.868 15.1438L37.8679 15.1438C39.5379 16.8072 40.7394 18.8816 41.3508 21.1579M36.8591 34.1222L41.3025 21.1708M36.8591 34.1222C36.9891 34.2627 37.1717 34.3425 37.3631 34.3425C37.5553 34.3425 37.7386 34.2622 37.8687 34.1207M36.8591 34.1222C36.8594 34.1225 36.8597 34.1227 36.8599 34.123L36.9223 34.1802L36.9352 34.1273C37.0518 34.2332 37.2042 34.2925 37.3631 34.2925C37.5417 34.2925 37.712 34.2177 37.8326 34.0861M41.3508 21.1579L41.3025 21.1708M41.3508 21.1579C41.3508 21.1579 41.3508 21.1579 41.3508 21.1578L41.3025 21.1708M41.3508 21.1579C41.9625 23.4339 41.9625 25.8312 41.3508 28.1074C40.7395 30.3836 39.5383 32.4576 37.8687 34.1207M41.3025 21.1708C41.9119 23.4383 41.9119 25.8267 41.3025 28.0945C40.6934 30.3625 39.4964 32.4291 37.8326 34.0861M37.8687 34.1207C37.869 34.1204 37.8692 34.1201 37.8695 34.1198L37.8326 34.0861M37.8687 34.1207C37.8684 34.121 37.8682 34.1212 37.8679 34.1215L37.8326 34.0861" fill="white" stroke="white" strokeWidth="0.1"/>
<path d="M35.5201 41.984C35.6234 41.9915 35.7265 41.9658 35.8142 41.9109C36.1654 41.7463 36.3236 41.3328 36.1713 40.9757L36.171 40.9752L30.2527 27.5002L30.7795 27.0664H30.7825L30.7971 27.0517C31.4372 26.4119 31.7927 25.5413 31.7838 24.6363C31.7913 23.7413 31.4352 22.8818 30.797 22.2544C29.9401 21.3914 28.6878 21.0512 27.512 21.3618C26.3363 21.6725 25.4155 22.5869 25.0966 23.7604C24.7776 24.934 25.1091 26.1887 25.9659 27.0516L25.9657 27.0518L25.9696 27.055L26.5102 27.5002L20.5921 40.9752L20.5921 40.9752L20.5919 40.9757C20.4396 41.3326 20.5976 41.7459 20.9484 41.9106C21.0362 41.9657 21.1395 41.9915 21.2429 41.984M35.5201 41.984C35.2291 41.9835 34.9645 41.8159 34.8398 41.553L34.8391 41.5514L34.8391 41.5514L33.5551 38.5886L29.1019 41.4583V44.0458C29.1019 44.4438 28.7795 44.7662 28.3815 44.7662C27.9835 44.7662 27.6611 44.4438 27.6611 44.0458V41.4583L23.2079 38.5886L21.9239 41.5514L21.9232 41.553L21.9232 41.553C21.7985 41.8159 21.5339 41.9835 21.2429 41.984M35.5201 41.984C35.5194 41.9839 35.5188 41.9839 35.5181 41.9838L35.522 41.934L35.522 41.984C35.5214 41.984 35.5207 41.984 35.5201 41.984ZM21.2429 41.984C21.2423 41.984 21.2416 41.984 21.241 41.984L21.241 41.934L21.2449 41.9838C21.2442 41.9839 21.2436 41.9839 21.2429 41.984ZM29.787 23.2631L29.7873 23.2634C30.1478 23.6285 30.3477 24.1224 30.3429 24.6357L30.3429 24.6371C30.3527 25.1612 30.1528 25.6673 29.787 26.0427L29.787 26.0427C29.4178 26.4221 28.9109 26.6362 28.3815 26.6362C27.852 26.6362 27.3451 26.4221 26.976 26.0427C26.6142 25.6704 26.4121 25.172 26.4121 24.653C26.4121 24.1338 26.6142 23.6354 26.976 23.2631C27.3451 22.8837 27.852 22.6696 28.3815 22.6696C28.9109 22.6696 29.4178 22.8837 29.787 23.2631ZM27.6611 39.7308L23.7848 37.2552L27.6611 28.4279V39.7308ZM32.9781 37.2552L29.1019 39.7307V28.4278L32.9781 37.2552Z" fill="white" stroke="white" strokeWidth="0.1"/>
</svg>
